<?xml version="1.0" encoding="UTF-8"?>
<svg xmlns="http://www.w3.org/2000/svg" xmlns:xlink="http://www.w3.org/1999/xlink" viewBox="0 0 2448 1672.6596">
  <defs>
    <style>
      .cls-1 {
        clip-path: url(#clippath-6);
      }

      .cls-2 {
        clip-path: url(#clippath-7);
      }

      .cls-3 {
        clip-path: url(#clippath-4);
      }

      .cls-4 {
        stroke-width: .3px;
      }

      .cls-4, .cls-5 {
        stroke: #231f20;
      }

      .cls-4, .cls-5, .cls-6 {
        fill: none;
      }

      .cls-7 {
        opacity: .3;
      }

      .cls-5 {
        stroke-width: .3629px;
      }

      .cls-8 {
        clip-path: url(#clippath-1);
      }

      .cls-9 {
        clip-path: url(#clippath-5);
      }

      .cls-10 {
        clip-path: url(#clippath-3);
      }

      .cls-11 {
        clip-path: url(#clippath-2);
      }

      .cls-12 {
        clip-path: url(#clippath);
      }
    </style>
    <clipPath id="clippath">
      <polygon class="cls-6" points="1159.6984 -2053.916 1168.9529 -2053.09 1177.0692 -2052.2125 1186.5411 -2051.1302 1194.3352 -2050.1068 1205.7704 -2048.4609 1207.5875 -2048.1622 1207.4231 -2145.8679 1159.6985 -2147.0014 1159.6984 -2053.916"/>
    </clipPath>
    <clipPath id="clippath-1">
      <polygon class="cls-6" points="1387.62 -2157.1931 1154.4574 -2146.5462 1153.9621 -2006.046 1387.6201 -2144.0805 1387.62 -2157.1931"/>
    </clipPath>
    <clipPath id="clippath-2">
      <polygon class="cls-6" points="1548.0358 -2162.6671 1160.0815 -2150.2185 1159.8345 -2078.4283 1547.9413 -2201.5037 1548.0358 -2162.6671"/>
    </clipPath>
    <clipPath id="clippath-3">
      <polygon class="cls-6" points="1547.9413 -2201.5037 1159.8345 -2078.4283 1159.587 -2006.482 1547.847 -2240.2947 1547.9413 -2201.5037"/>
    </clipPath>
    <clipPath id="clippath-4">
      <polygon class="cls-6" points="1238.52 -2044.3409 1238.52 -2109.1809 1213.39 -2109.1809 1213.4252 -2047.6233 1238.52 -2044.3409"/>
    </clipPath>
    <clipPath id="clippath-5">
      <polygon class="cls-6" points="1357.8132 -2117.9632 1048.0732 -1831.9688 1048.0732 -2069.8446 1357.8132 -2146.517 1357.8132 -2117.9632"/>
    </clipPath>
    <clipPath id="clippath-6">
      <polygon class="cls-6" points="1753.6209 -2215.1916 1213.1413 -2126.1976 1213.1413 -2026.7083 1753.6209 -2403.3698 1753.6209 -2215.1916"/>
    </clipPath>
    <clipPath id="clippath-7">
      <polygon class="cls-6" points="1753.6209 -2403.3698 1213.1413 -2026.7083 1213.1413 -1927.2189 1753.6209 -2591.5481 1753.6209 -2403.3698"/>
    </clipPath>
  </defs>
  <g id="texture" class="cls-7">
    <g id="rammy">
      <g class="cls-12">
        <g class="cls-8">
          <g class="cls-11">
            <g>
              <line class="cls-4" x1="4893.3157" y1="-2378.5403" x2="-473336.5802" y2="27874.3026"/>
              <line class="cls-4" x1="383.8216" y1="-2057.1595" x2="-28994.1175" y2="833.3784"/>
              <line class="cls-4" x1="26286.3122" y1="-5848.9083" x2="-881838.644" y2="128888.3853"/>
              <line class="cls-4" x1="-93898.2836" y1="18113.9937" x2="33834.2906" y2="-9054.533"/>
              <line class="cls-4" x1="2792.1208" y1="-2559.8466" x2="-10836.218" y2="1404.4747"/>
            </g>
          </g>
          <g class="cls-10">
            <g>
              <line class="cls-4" x1="-5113.4735" y1="56.2637" x2="497.0545" y2="-1847.8804"/>
              <line class="cls-4" x1="375544.5275" y1="-143947.3317" x2="-24451.8868" y2="7643.4933"/>
              <line class="cls-4" x1="379.3512" y1="-1762.4625" x2="-33581.6211" y2="11259.3535"/>
              <line class="cls-4" x1="421.2788" y1="-1756.4813" x2="-12960.7432" y2="3672.6886"/>
              <line class="cls-4" x1="4497.4618" y1="-3599.596" x2="-6241.878" y2="1416.5193"/>
              <line class="cls-4" x1="-160453.3785" y1="78412.5873" x2="29852.1962" y2="-16315.0083"/>
              <line class="cls-4" x1="2694.7108" y1="-2808.3734" x2="-5711.053" y2="1450.6175"/>
              <line class="cls-4" x1="2783.8031" y1="-2948.598" x2="-11518.2557" y2="5288.9834"/>
            </g>
          </g>
        </g>
      </g>
      <g class="cls-3">
        <g class="cls-9">
          <g class="cls-1">
            <g>
              <line class="cls-5" x1="259504.4874" y1="-91162.875" x2="-37035.9647" y2="11097.4787"/>
              <line class="cls-5" x1="10636.4029" y1="-6417.4504" x2="-8503.5163" y2="2411.28"/>
              <line class="cls-5" x1="1727.6552" y1="-2321.4035" x2="-3293.2879" y2="198.7622"/>
            </g>
          </g>
          <g class="cls-2">
            <g>
              <line class="cls-5" x1="6268.2375" y1="-5752.0437" x2="-6704.1673" y2="3827.8707"/>
              <line class="cls-5" x1="259504.4874" y1="-228537.6694" x2="-37035.9647" y2="31554.8644"/>
              <line class="cls-5" x1="10636.4029" y1="-11333.4452" x2="-8503.5163" y2="7682.412"/>
              <line class="cls-5" x1="1727.6552" y1="-2495.7617" x2="-3293.2879" y2="2696.776"/>
              <line class="cls-5" x1="39764.2672" y1="-42470.4025" x2="-1054.7475" y2="422.5619"/>
              <line class="cls-5" x1="-775.3922" y1="410.4412" x2="5938.0582" y2="-7512.5953"/>
              <line class="cls-5" x1="-1606.2429" y1="1435.4362" x2="878.3873" y2="-1533.5928"/>
            </g>
          </g>
        </g>
      </g>
    </g>
  </g>
</svg>